<?xml version="1.0" standalone="no"?>
<!DOCTYPE svg PUBLIC "-//W3C//DTD SVG 20010904//EN"
 "http://www.w3.org/TR/2001/REC-SVG-20010904/DTD/svg10.dtd">
<svg version="1.0" xmlns="http://www.w3.org/2000/svg"
 width="1200.000000pt" height="1200.000000pt" viewBox="0 0 1200.000000 1200.000000"
 preserveAspectRatio="xMidYMid meet">
<metadata>
Created by potrace 1.11, written by Peter Selinger 2001-2013
</metadata>
<g transform="translate(0.000000,1200.000000) scale(0.100000,-0.100000)"
fill="#000000" stroke="none">
<path d="M5565 11989 c-629 -50 -1213 -184 -1770 -404 -1883 -745 -3274 -2400
-3675 -4375 -93 -456 -115 -691 -115 -1210 0 -433 7 -542 56 -880 127 -876
467 -1750 967 -2485 989 -1454 2552 -2402 4283 -2599 436 -50 942 -50 1378 0
2689 306 4862 2410 5250 5084 49 337 56 447 56 880 0 433 -7 543 -56 880 -281
1935 -1522 3638 -3284 4505 -650 320 -1313 510 -2060 591 -175 19 -854 28
-1030 13z m815 -2449 c362 -23 822 -109 1205 -225 132 -40 361 -127 390 -149
18 -13 16 -20 -49 -162 -37 -82 -71 -153 -76 -157 -4 -5 -70 15 -146 43 -241
90 -643 197 -877 235 -385 62 -781 60 -1074 -4 -323 -70 -655 -246 -841 -445
-135 -145 -240 -331 -289 -513 -25 -90 -27 -113 -27 -293 0 -184 2 -200 27
-283 47 -151 111 -258 231 -385 211 -223 507 -386 1101 -607 187 -69 425 -158
530 -197 231 -86 493 -198 680 -293 652 -330 1043 -796 1140 -1360 40 -231 40
-539 0 -770 -78 -449 -300 -828 -650 -1107 -292 -233 -713 -405 -1145 -468
-734 -107 -1459 14 -2144 357 -133 67 -470 256 -494 278 -11 10 3 43 78 184
51 94 96 173 100 176 4 3 54 -24 111 -60 389 -244 964 -465 1400 -539 328 -56
691 -45 1009 29 398 93 780 311 1005 572 174 203 273 398 330 653 25 112 31
435 11 565 -67 436 -313 770 -775 1049 -222 135 -508 261 -1089 480 -834 315
-1122 457 -1398 688 -188 158 -337 365 -403 557 -92 270 -88 619 11 931 218
685 899 1164 1733 1219 177 12 204 12 385 1z"/>
</g>
</svg>
