<?xml version="1.0" standalone="no"?>
<!DOCTYPE svg PUBLIC "-//W3C//DTD SVG 20010904//EN"
 "http://www.w3.org/TR/2001/REC-SVG-20010904/DTD/svg10.dtd">
<svg version="1.0" xmlns="http://www.w3.org/2000/svg"
 width="700.000000pt" height="700.000000pt" viewBox="0 0 700.000000 700.000000"
 preserveAspectRatio="xMidYMid meet">
<metadata>
Created by potrace 1.11, written by Peter Selinger 2001-2013
</metadata>
<g transform="translate(0.000000,700.000000) scale(0.100000,-0.100000)"
fill="#000000" stroke="none">
<path d="M0 3500 l0 -3500 3500 0 3500 0 0 3500 0 3500 -3500 0 -3500 0 0
-3500z m3984 1255 c18 -14 37 -25 43 -25 5 0 18 -9 28 -20 10 -11 24 -20 31
-20 7 0 14 -3 16 -8 2 -4 24 -21 50 -38 l47 -31 -55 -79 c-30 -43 -71 -104
-91 -134 -21 -30 -43 -61 -49 -67 -7 -7 -22 -29 -35 -50 -13 -21 -27 -42 -32
-48 -9 -11 -112 -157 -222 -315 -38 -55 -101 -145 -140 -200 -38 -54 -108
-154 -155 -221 -47 -67 -92 -131 -101 -142 l-16 -20 -34 25 c-19 13 -70 51
-114 83 -44 32 -84 62 -89 66 -7 6 56 106 144 224 14 19 77 108 140 199 89
128 352 505 430 616 6 8 45 63 86 123 42 59 78 107 81 107 2 0 19 -11 37 -25z
m-42 -1298 l87 -58 -324 -462 c-178 -254 -373 -533 -434 -619 -61 -86 -114
-164 -117 -173 -3 -8 -11 -15 -18 -15 -11 0 -206 137 -234 164 -11 11 14 52
144 237 86 123 167 240 180 259 13 19 56 80 94 135 39 55 79 111 88 125 9 14
19 27 22 30 3 3 10 12 15 22 6 9 81 118 168 242 l158 225 42 -27 c23 -15 81
-54 129 -85z"/>
</g>
</svg>
